<?xml version="1.0" encoding="UTF-8"?>
<svg width="752pt" height="752pt" version="1.1" viewBox="0 0 752 752" xmlns="http://www.w3.org/2000/svg">
 <g>
  <path d="m37.602 0h676.8c20.766 0 37.602 20.766 37.602 37.602v676.8c0 20.766-16.836 37.602-37.602 37.602h-676.8c-20.766 0-37.602-20.766-37.602-37.602v-676.8c0-20.766 16.836-37.602 37.602-37.602z" fill="#fff"/>
  <path d="m309.46 295.49c-12.543 0-22.969 10.426-22.969 22.969 0 12.543 10.426 22.969 22.969 22.969 12.543 0 22.969-10.426 22.969-22.969 0-12.543-10.426-22.969-22.969-22.969z"/>
  <path d="m442.54 295.49c-12.543 0-22.969 10.426-22.969 22.969 0 12.543 10.426 22.969 22.969 22.969 12.543 0 22.969-10.426 22.969-22.969 0-12.543-10.426-22.969-22.969-22.969z"/>
  <path d="m376 162.89c-117.55 0-213.11 95.555-213.11 213.11 0 117.55 95.555 213.11 213.11 213.11 117.55 0 213.11-95.555 213.11-213.11 0-117.55-95.555-213.11-213.11-213.11zm0 25.855c103.56 0 187.25 83.695 187.25 187.25 0 103.56-83.695 187.25-187.25 187.25-103.56 0-187.25-83.695-187.25-187.25 0-103.56 83.695-187.25 187.25-187.25z"/>
  <path d="m376 407.81c-39.266 0.078125-78.695 18-101.97 54.16-4.5508 7.0703-3.7773 16.078 2.6641 19.75 6.8242 3.8906 14.602 1.1289 18.797-5.3164 18.152-27.887 49.34-41.777 80.508-41.855 31.172-0.078125 62.355 13.812 80.508 41.699 4.1953 6.4453 11.973 9.3594 18.797 5.4688 6.4414-3.6719 7.2148-12.832 2.6641-19.902-23.273-36.16-62.699-54.082-101.97-54.004z"/>
 </g>
</svg>
